<svg width="1121" height="145" viewBox="0 0 1121 145" fill="none" xmlns="http://www.w3.org/2000/svg">
<g clip-path="url(#clip0_4010_281)">
<path d="M0 64V24H48L80 64H0Z" fill="#0A72FF"/>
<path d="M80 64H40V144H80V64Z" fill="#0A72FF"/>
<path d="M80 64H40V144H80V64Z" fill="url(#paint0_linear_4010_281)" fill-opacity="0.4"/>
<path d="M104 0L88 24H120V56L144 40V0H104Z" fill="#00E59D"/>
</g>
<path d="M1100.68 144V24H1120.68V144H1100.68Z" fill="#1A1D3E"/>
<path d="M1046.65 144.084C1036.45 144.084 1027.5 142.077 1019.82 138.064C1012.25 133.936 1006.35 128.317 1002.1 121.208C997.976 114.099 995.912 106.015 995.912 96.956C995.912 87.7827 997.918 79.6987 1001.93 72.704C1006.06 65.5947 1011.68 60.0333 1018.79 56.02C1026.01 52.0067 1034.21 50 1043.38 50C1052.33 50 1060.3 51.9493 1067.29 55.848C1074.29 59.7467 1079.79 65.2507 1083.8 72.36C1087.82 79.4693 1089.82 87.84 1089.82 97.472C1089.82 98.3893 1089.77 99.4213 1089.65 100.568C1089.65 101.715 1089.59 102.804 1089.48 103.836H1012.94V89.56H1078.13L1069.7 94.032C1069.81 88.7573 1068.72 84.1133 1066.43 80.1C1064.14 76.0867 1060.98 72.9333 1056.97 70.64C1053.07 68.3467 1048.54 67.2 1043.38 67.2C1038.11 67.2 1033.46 68.3467 1029.45 70.64C1025.55 72.9333 1022.46 76.144 1020.16 80.272C1017.98 84.2853 1016.9 89.044 1016.9 94.548V97.988C1016.9 103.492 1018.16 108.365 1020.68 112.608C1023.2 116.851 1026.76 120.119 1031.34 122.412C1035.93 124.705 1041.2 125.852 1047.17 125.852C1052.33 125.852 1056.97 125.049 1061.1 123.444C1065.23 121.839 1068.9 119.316 1072.11 115.876L1083.63 129.12C1079.5 133.936 1074.29 137.663 1067.98 140.3C1061.79 142.823 1054.68 144.084 1046.65 144.084Z" fill="#1A1D3E"/>
<path d="M957.342 144.084C947.71 144.084 939.11 142.077 931.542 138.064C924.089 133.936 918.241 128.317 913.998 121.208C909.755 114.099 907.634 106.015 907.634 96.956C907.634 87.7827 909.755 79.6987 913.998 72.704C918.241 65.5947 924.089 60.0333 931.542 56.02C939.11 52.0067 947.71 50 957.342 50C966.286 50 974.141 51.8347 980.906 55.504C987.786 59.0587 993.003 64.3333 996.558 71.328L980.046 80.96C977.294 76.6027 973.911 73.392 969.898 71.328C965.999 69.264 961.757 68.232 957.17 68.232C951.895 68.232 947.137 69.3787 942.894 71.672C938.651 73.9653 935.326 77.2907 932.918 81.648C930.51 85.8907 929.306 90.9933 929.306 96.956C929.306 102.919 930.51 108.079 932.918 112.436C935.326 116.679 938.651 119.947 942.894 122.24C947.137 124.533 951.895 125.68 957.17 125.68C961.757 125.68 965.999 124.648 969.898 122.584C973.911 120.52 977.294 117.309 980.046 112.952L996.558 122.584C993.003 129.464 987.786 134.796 980.906 138.58C974.141 142.249 966.286 144.084 957.342 144.084Z" fill="#1A1D3E"/>
<path d="M869.064 144.084C859.432 144.084 850.832 142.077 843.264 138.064C835.811 133.936 829.963 128.317 825.72 121.208C821.478 114.099 819.356 106.015 819.356 96.956C819.356 87.7827 821.478 79.6987 825.72 72.704C829.963 65.5947 835.811 60.0333 843.264 56.02C850.832 52.0067 859.432 50 869.064 50C878.008 50 885.863 51.8347 892.628 55.504C899.508 59.0587 904.726 64.3333 908.28 71.328L891.768 80.96C889.016 76.6027 885.634 73.392 881.62 71.328C877.722 69.264 873.479 68.232 868.892 68.232C863.618 68.232 858.859 69.3787 854.616 71.672C850.374 73.9653 847.048 77.2907 844.64 81.648C842.232 85.8907 841.028 90.9933 841.028 96.956C841.028 102.919 842.232 108.079 844.64 112.436C847.048 116.679 850.374 119.947 854.616 122.24C858.859 124.533 863.618 125.68 868.892 125.68C873.479 125.68 877.722 124.648 881.62 122.584C885.634 120.52 889.016 117.309 891.768 112.952L908.28 122.584C904.726 129.464 899.508 134.796 892.628 138.58C885.863 142.249 878.008 144.084 869.064 144.084Z" fill="#1A1D3E"/>
<path d="M694.288 144.4L748.468 24H770.484L824.836 144.4H801.444L754.832 35.868H763.776L717.336 144.4H694.288ZM719.228 116.536L725.248 98.992H790.264L796.284 116.536H719.228Z" fill="#1A1D3E"/>
<path d="M665.246 144.628C655.155 144.628 647.358 142.048 641.854 136.888C636.35 131.613 633.598 123.873 633.598 113.668V24H655.098V113.152C655.098 117.509 656.187 120.892 658.366 123.3C660.659 125.708 663.812 126.912 667.826 126.912C672.642 126.912 676.655 125.651 679.866 123.128L685.886 138.436C683.363 140.5 680.267 142.048 676.598 143.08C672.928 144.112 669.144 144.628 665.246 144.628ZM618.462 69.464V52.264H679.694V69.464H618.462Z" fill="#1A1D3E"/>
<path d="M575.364 52C582.702 52 589.238 53.4333 594.972 56.3C600.82 59.1667 605.406 63.5813 608.732 69.544C612.057 75.392 613.72 82.96 613.72 92.248V144.88H592.22V95C592.22 86.8587 590.27 80.7813 586.372 76.768C582.588 72.7547 577.256 70.748 570.376 70.748C565.33 70.748 560.858 71.78 556.96 73.844C553.061 75.908 550.022 79.004 547.844 83.132C545.78 87.1453 544.748 92.248 544.748 98.44V144.88H523.248V53.032H543.716V77.8L540.104 70.232C543.314 64.384 547.958 59.912 554.036 56.816C560.228 53.6053 567.337 52 575.364 52Z" fill="#1A1D3E"/>
<path d="M469.743 144.084C459.538 144.084 450.594 142.077 442.911 138.064C435.343 133.936 429.438 128.317 425.195 121.208C421.067 114.099 419.003 106.015 419.003 96.956C419.003 87.7827 421.01 79.6987 425.023 72.704C429.151 65.5947 434.77 60.0333 441.879 56.02C449.103 52.0067 457.302 50 466.475 50C475.419 50 483.389 51.9493 490.383 55.848C497.378 59.7467 502.882 65.2507 506.895 72.36C510.909 79.4693 512.915 87.84 512.915 97.472C512.915 98.3893 512.858 99.4213 512.743 100.568C512.743 101.715 512.686 102.804 512.571 103.836H436.031V89.56H501.219L492.791 94.032C492.906 88.7573 491.817 84.1133 489.523 80.1C487.23 76.0867 484.077 72.9333 480.063 70.64C476.165 68.3467 471.635 67.2 466.475 67.2C461.201 67.2 456.557 68.3467 452.543 70.64C448.645 72.9333 445.549 76.144 443.255 80.272C441.077 84.2853 439.987 89.044 439.987 94.548V97.988C439.987 103.492 441.249 108.365 443.771 112.608C446.294 116.851 449.849 120.119 454.435 122.412C459.022 124.705 464.297 125.852 470.259 125.852C475.419 125.852 480.063 125.049 484.191 123.444C488.319 121.839 491.989 119.316 495.199 115.876L506.723 129.12C502.595 133.936 497.378 137.663 491.071 140.3C484.879 142.823 477.77 144.084 469.743 144.084Z" fill="#1A1D3E"/>
<path d="M386.677 144V24H408.677V144H386.677Z" fill="#1A1D3E"/>
<path d="M349.604 142.88V124.304L348.4 120.348V87.84C348.4 81.5333 346.508 76.66 342.724 73.22C338.94 69.6653 333.207 67.888 325.524 67.888C320.364 67.888 315.262 68.6907 310.216 70.296C305.286 71.9013 301.1 74.1373 297.66 77.004L289.232 61.352C294.163 57.568 300.011 54.7587 306.776 52.924C313.656 50.9747 320.766 50 328.104 50C341.406 50 351.668 53.2107 358.892 59.632C366.231 65.9387 369.9 75.7427 369.9 89.044V142.88H349.604ZM320.708 144.084C313.828 144.084 307.808 142.937 302.648 140.644C297.488 138.236 293.475 134.968 290.608 130.84C287.856 126.597 286.48 121.839 286.48 116.564C286.48 111.404 287.684 106.76 290.092 102.632C292.615 98.504 296.686 95.236 302.304 92.828C307.923 90.42 315.376 89.216 324.664 89.216H351.324V103.492H326.212C318.874 103.492 313.943 104.696 311.42 107.104C308.898 109.397 307.636 112.264 307.636 115.704C307.636 119.603 309.184 122.699 312.28 124.992C315.376 127.285 319.676 128.432 325.18 128.432C330.455 128.432 335.156 127.228 339.284 124.82C343.527 122.412 346.566 118.857 348.4 114.156L352.012 127.056C349.948 132.445 346.222 136.631 340.832 139.612C335.558 142.593 328.85 144.084 320.708 144.084Z" fill="#1A1D3E"/>
<path d="M231.838 144V42.8571H192V24H294V42.8571H254.162V144H231.838Z" fill="#1A1D3E"/>
<defs>
<linearGradient id="paint0_linear_4010_281" x1="60" y1="79" x2="48" y2="60" gradientUnits="userSpaceOnUse">
<stop stop-opacity="0"/>
<stop offset="1"/>
</linearGradient>
<clipPath id="clip0_4010_281">
<rect width="144" height="144" fill="white"/>
</clipPath>
</defs>
</svg>
