<svg width="422" height="96" viewBox="0 0 422 96" fill="none" xmlns="http://www.w3.org/2000/svg">
<rect width="421.333" height="96" fill="white"/>
<rect width="421.333" height="96" stroke="#E2E8F0"/>
<g clip-path="url(#clip0_2002_244)">
<path d="M24 45.3333V32H40L50.6667 45.3333H24Z" fill="#0A72FF"/>
<path d="M50.6666 45.3333H37.3333V71.9999H50.6666V45.3333Z" fill="#0A72FF"/>
<path d="M50.6666 45.3333H37.3333V71.9999H50.6666V45.3333Z" fill="url(#paint0_linear_2002_244)" fill-opacity="0.4"/>
<path d="M58.6666 24L53.3333 32H63.9999V42.6667L72 37.3333V24H58.6666Z" fill="#00E59D"/>
</g>
<path d="M390.893 72V32H397.559V72H390.893Z" fill="#1A1D3E"/>
<path d="M372.884 72.0281C369.482 72.0281 366.501 71.3592 363.94 70.0214C361.417 68.6454 359.449 66.7725 358.034 64.4028C356.658 62.033 355.97 59.3383 355.97 56.3187C355.97 53.261 356.639 50.5663 357.977 48.2347C359.353 45.865 361.226 44.0112 363.596 42.6734C366.004 41.3356 368.737 40.6667 371.794 40.6667C374.776 40.6667 377.432 41.3165 379.764 42.6161C382.095 43.9156 383.93 45.7503 385.268 48.1201C386.606 50.4899 387.274 53.2801 387.274 56.4908C387.274 56.7965 387.255 57.1405 387.217 57.5227C387.217 57.905 387.198 58.2681 387.16 58.6121H361.646V53.8534H383.376L380.566 55.3441C380.605 53.5859 380.242 52.0379 379.477 50.7001C378.713 49.3623 377.662 48.3112 376.324 47.5467C375.024 46.7823 373.514 46.4001 371.794 46.4001C370.036 46.4001 368.488 46.7823 367.15 47.5467C365.851 48.3112 364.819 49.3814 364.054 50.7574C363.328 52.0952 362.965 53.6814 362.965 55.5161V56.6628C362.965 58.4974 363.386 60.1219 364.226 61.5361C365.067 62.9503 366.252 64.0396 367.781 64.8041C369.31 65.5685 371.068 65.9508 373.056 65.9508C374.776 65.9508 376.324 65.6832 377.7 65.1481C379.076 64.613 380.299 63.7721 381.369 62.6254L385.21 67.0401C383.834 68.6454 382.095 69.8876 379.993 70.7667C377.929 71.6076 375.559 72.0281 372.884 72.0281Z" fill="#1A1D3E"/>
<path d="M343.114 72.0281C339.903 72.0281 337.037 71.3592 334.514 70.0214C332.03 68.6454 330.08 66.7725 328.666 64.4028C327.252 62.033 326.545 59.3383 326.545 56.3187C326.545 53.261 327.252 50.5663 328.666 48.2347C330.08 45.865 332.03 44.0112 334.514 42.6734C337.037 41.3356 339.903 40.6667 343.114 40.6667C346.095 40.6667 348.714 41.2783 350.969 42.5014C353.262 43.6863 355.001 45.4445 356.186 47.7761L350.682 50.9867C349.765 49.5343 348.637 48.4641 347.299 47.7761C346 47.0881 344.586 46.7441 343.057 46.7441C341.298 46.7441 339.712 47.1263 338.298 47.8907C336.884 48.6552 335.775 49.7636 334.973 51.2161C334.17 52.6303 333.769 54.3312 333.769 56.3187C333.769 58.3063 334.17 60.0263 334.973 61.4788C335.775 62.893 336.884 63.9823 338.298 64.7468C339.712 65.5112 341.298 65.8934 343.057 65.8934C344.586 65.8934 346 65.5494 347.299 64.8614C348.637 64.1734 349.765 63.1032 350.682 61.6507L356.186 64.8614C355.001 67.1548 353.262 68.9321 350.969 70.1934C348.714 71.4165 346.095 72.0281 343.114 72.0281Z" fill="#1A1D3E"/>
<path d="M313.688 72.0281C310.478 72.0281 307.611 71.3592 305.088 70.0214C302.604 68.6454 300.654 66.7725 299.24 64.4028C297.826 62.033 297.119 59.3383 297.119 56.3187C297.119 53.261 297.826 50.5663 299.24 48.2347C300.654 45.865 302.604 44.0112 305.088 42.6734C307.611 41.3356 310.478 40.6667 313.688 40.6667C316.67 40.6667 319.288 41.2783 321.543 42.5014C323.836 43.6863 325.575 45.4445 326.76 47.7761L321.256 50.9867C320.339 49.5343 319.211 48.4641 317.874 47.7761C316.574 47.0881 315.16 46.7441 313.631 46.7441C311.873 46.7441 310.286 47.1263 308.872 47.8907C307.458 48.6552 306.35 49.7636 305.547 51.2161C304.744 52.6303 304.343 54.3312 304.343 56.3187C304.343 58.3063 304.744 60.0263 305.547 61.4788C306.35 62.893 307.458 63.9823 308.872 64.7468C310.286 65.5112 311.873 65.8934 313.631 65.8934C315.16 65.8934 316.574 65.5494 317.874 64.8614C319.211 64.1734 320.339 63.1032 321.256 61.6507L326.76 64.8614C325.575 67.1548 323.836 68.9321 321.543 70.1934C319.288 71.4165 316.67 72.0281 313.688 72.0281Z" fill="#1A1D3E"/>
<path d="M255.429 72.1333L273.489 32H280.828L298.945 72.1333H291.148L275.611 35.956H278.592L263.112 72.1333H255.429ZM263.743 62.8453L265.749 56.9973H287.421L289.428 62.8453H263.743Z" fill="#1A1D3E"/>
<path d="M245.748 72.2093C242.385 72.2093 239.786 71.3493 237.951 69.6293C236.116 67.8711 235.199 65.2911 235.199 61.8893V32H242.366V61.7173C242.366 63.1698 242.729 64.2973 243.455 65.1C244.22 65.9027 245.271 66.304 246.608 66.304C248.214 66.304 249.552 65.8836 250.622 65.0427L252.628 70.1453C251.788 70.8333 250.756 71.3493 249.532 71.6933C248.309 72.0373 247.048 72.2093 245.748 72.2093ZM230.154 47.1547V41.4213H250.564V47.1547H230.154Z" fill="#1A1D3E"/>
<path d="M215.788 41.3333C218.234 41.3333 220.413 41.811 222.324 42.7666C224.273 43.7221 225.802 45.1937 226.91 47.1813C228.019 49.1306 228.573 51.6533 228.573 54.7493V72.2933H221.406V55.6666C221.406 52.9528 220.757 50.927 219.457 49.5893C218.196 48.2515 216.418 47.5826 214.125 47.5826C212.443 47.5826 210.953 47.9266 209.653 48.6146C208.354 49.3026 207.341 50.3346 206.614 51.7106C205.926 53.0484 205.582 54.7493 205.582 56.8133V72.2933H198.416V41.6773H205.238V49.9333L204.034 47.4106C205.105 45.4613 206.653 43.9706 208.678 42.9386C210.742 41.8684 213.112 41.3333 215.788 41.3333Z" fill="#1A1D3E"/>
<path d="M180.581 72.0281C177.179 72.0281 174.198 71.3592 171.637 70.0214C169.114 68.6454 167.146 66.7725 165.732 64.4028C164.356 62.033 163.668 59.3383 163.668 56.3187C163.668 53.261 164.337 50.5663 165.674 48.2347C167.05 45.865 168.923 44.0112 171.293 42.6734C173.701 41.3356 176.434 40.6667 179.492 40.6667C182.473 40.6667 185.13 41.3165 187.461 42.6161C189.793 43.9156 191.627 45.7503 192.965 48.1201C194.303 50.4899 194.972 53.2801 194.972 56.4908C194.972 56.7965 194.953 57.1405 194.914 57.5227C194.914 57.905 194.895 58.2681 194.857 58.6121H169.344V53.8534H191.073L188.264 55.3441C188.302 53.5859 187.939 52.0379 187.174 50.7001C186.41 49.3623 185.359 48.3112 184.021 47.5467C182.722 46.7823 181.212 46.4001 179.492 46.4001C177.734 46.4001 176.186 46.7823 174.848 47.5467C173.548 48.3112 172.516 49.3814 171.752 50.7574C171.026 52.0952 170.662 53.6814 170.662 55.5161V56.6628C170.662 58.4974 171.083 60.1219 171.924 61.5361C172.765 62.9503 173.95 64.0396 175.478 64.8041C177.007 65.5685 178.766 65.9508 180.753 65.9508C182.473 65.9508 184.021 65.6832 185.397 65.1481C186.773 64.613 187.996 63.7721 189.066 62.6254L192.908 67.0401C191.532 68.6454 189.793 69.8876 187.69 70.7667C185.626 71.6076 183.257 72.0281 180.581 72.0281Z" fill="#1A1D3E"/>
<path d="M152.893 72V32H160.226V72H152.893Z" fill="#1A1D3E"/>
<path d="M140.535 71.6268V65.4347L140.133 64.1161V53.2801C140.133 51.1779 139.503 49.5534 138.241 48.4067C136.98 47.2219 135.069 46.6294 132.508 46.6294C130.788 46.6294 129.087 46.897 127.405 47.4321C125.762 47.9672 124.367 48.7125 123.22 49.6681L120.411 44.4507C122.054 43.1894 124.004 42.253 126.259 41.6414C128.552 40.9916 130.922 40.6667 133.368 40.6667C137.802 40.6667 141.223 41.737 143.631 43.8774C146.077 45.9796 147.3 49.2476 147.3 53.6814V71.6268H140.535ZM130.903 72.0281C128.609 72.0281 126.603 71.6459 124.883 70.8814C123.163 70.0788 121.825 68.9894 120.869 67.6134C119.952 66.1992 119.493 64.613 119.493 62.8547C119.493 61.1347 119.895 59.5867 120.697 58.2107C121.538 56.8347 122.895 55.7454 124.768 54.9427C126.641 54.1401 129.125 53.7387 132.221 53.7387H141.108V58.4974H132.737C130.291 58.4974 128.648 58.8987 127.807 59.7014C126.966 60.4659 126.545 61.4214 126.545 62.5681C126.545 63.8676 127.061 64.8996 128.093 65.6641C129.125 66.4285 130.559 66.8108 132.393 66.8108C134.152 66.8108 135.719 66.4094 137.095 65.6068C138.509 64.8041 139.522 63.6192 140.133 62.0521L141.337 66.3521C140.649 68.1485 139.407 69.5436 137.611 70.5374C135.853 71.5312 133.617 72.0281 130.903 72.0281Z" fill="#1A1D3E"/>
<path d="M101.279 72V38.2857H88V32H122V38.2857H108.721V72H101.279Z" fill="#1A1D3E"/>
<defs>
<linearGradient id="paint0_linear_2002_244" x1="43.9999" y1="50.3333" x2="39.9999" y2="43.9999" gradientUnits="userSpaceOnUse">
<stop stop-opacity="0"/>
<stop offset="1"/>
</linearGradient>
<clipPath id="clip0_2002_244">
<rect width="48" height="48" fill="white" transform="translate(24 24)"/>
</clipPath>
</defs>
</svg>
